<?xml version="1.0" encoding="UTF-8"?>
<svg width="1053px" height="752px" viewBox="0 0 1053 752" version="1.1" xmlns="http://www.w3.org/2000/svg" xmlns:xlink="http://www.w3.org/1999/xlink">
    <!-- Generator: Sketch 43.2 (39069) - http://www.bohemiancoding.com/sketch -->
    <title>dcEatsLogo</title>
    <desc>Created with Sketch.</desc>
    <defs>
        <path d="M14,259.189853 L203.648285,72.0260426 C207.580171,68.1456664 213.924035,68.1729665 217.813252,72.0825457 L531.954343,387.868354 C535.845552,391.779936 535.862723,398.14359 531.996,402.07828 C531.996,402.07828 402.344458,534.032222 284.110819,653.972081 C269,708.5 318.117725,762 269,762 C219.882275,762 259,705 249.863339,661.317512 C245.381249,641.489431 240.854249,654.345955 242.989362,620.932897 C245.124475,587.519839 265.329787,547.89689 254.589198,510.949264 C243.848609,474.001637 237.833879,470.564648 227.952537,454.668576 C218.071195,438.772504 191.434534,427.172668 178.545827,405.691489 C165.657119,384.210311 172.531097,388.076923 164.797872,371.751227 C157.064648,355.425532 105.50982,365.306874 74.1472995,344.684943 C59.801493,335.252084 60.3993453,319.337152 40.6366612,300.004092 C20.8739771,280.671031 14,259.189853 14,259.189853 Z" id="path-1"></path>
    </defs>
    <g id="Page-1" stroke="none" stroke-width="1" fill="none" fill-rule="evenodd">
        <g id="dcEatsLogo" transform="translate(0.000000, -10.000000)">
            <g id="Group-3-Copy" transform="translate(452.000000, 0.000000)">
                <path d="M0,226 L211.209423,17.557513 C221.034887,7.86076632 236.890928,7.93224201 246.626919,17.7192064 L593.373081,366.280794 C603.10816,376.066841 603.158799,391.97935 593.479148,401.82824 C593.479148,401.82824 442,556 301,699 C287,699 274.5,694 274.5,694 C274.5,694 264.015135,685.886435 266.5,647 C268.984865,608.113565 292.5,562 280,519 C267.5,476 260.5,472 249,453.5 C237.5,435 206.5,421.5 191.5,396.5 C176.5,371.5 184.5,376 175.5,357 C166.5,338 106.5,349.5 70,325.5 C53.3042138,314.521949 54,296 31,273.5 C8,251 0,226 0,226 Z" id="Rectangle-2" fill="#E2CC9A"></path>
                <path d="M7,242.091982 L203.437895,48.2275087 C213.265098,38.5290469 229.122722,38.5993077 238.861927,48.3895032 L560.965846,372.179831 C570.702796,381.96776 570.74651,397.890346 561.075877,407.72996 C561.075877,407.72996 420.49509,550.810035 288.588285,684.587859 C275.491156,684.587859 276.977112,683.567151 263.79729,679.910312 C259.625086,678.463614 255.542256,661.621942 256.313216,635.941377 C258.63783,599.562757 280.636457,556.423091 268.942591,516.196193 C257.248725,475.969295 250.700161,472.227258 239.941804,454.920337 C229.183448,437.613416 200.182661,424.984041 186.150022,401.596309 C172.117383,378.208578 179.601457,382.41837 171.181874,364.643694 C162.762291,346.869018 106.631736,357.627374 72.4856478,335.175152 C56.8665853,324.905084 57.5174997,307.577629 36.0007869,286.528671 C14.484074,265.479713 7,242.091982 7,242.091982 Z" id="Rectangle-2" fill="#F46F5A"></path>
                <g id="Rectangle-2">
                    <use fill="#F4D55A" fill-rule="evenodd" xlink:href="#path-1"></use>
                    <path stroke="#F3C05A" stroke-width="20" d="M25.7536317,261.640006 L210.672578,79.1435781 C210.685568,79.1307587 210.719538,79.1308975 210.723746,79.1351271 L524.864837,394.920936 C524.891047,394.947283 524.891315,395.04088 524.863599,395.069083 C524.650401,395.286066 524.650401,395.286066 523.613448,396.341361 C522.583075,397.389939 521.366495,398.627957 519.970337,400.048649 C515.981239,404.107848 511.353386,408.816553 506.139814,414.120639 C491.243774,429.275292 474.641294,446.161956 456.756674,464.347612 C405.657918,516.306469 354.522031,568.265255 306.74359,616.759644 C306.294726,617.215233 306.294726,617.215233 305.84586,617.67082 C295.989716,627.674506 286.364621,637.441211 276.989279,646.951849 L275.16716,648.800262 L274.474009,651.301521 C271.374577,662.485931 270.512002,674.08507 271.452435,686.535145 C272.164116,695.956858 273.706232,704.702178 276.511902,717.12254 C281.451607,738.990023 282.03381,742.334294 281.236329,747.144053 C280.952374,748.856634 280.530936,749.559957 279.666793,750.119435 C277.941236,751.236623 274.491135,752 269,752 C263.145778,752 259.342842,751.06887 257.182994,749.586131 C255.684106,748.557142 254.761157,747.046342 254.19459,744.408752 C252.904734,738.403966 253.612152,732.115122 257.335119,711.294415 C259.16703,701.049439 260.121652,694.816188 260.747301,688.007099 C261.726319,677.352202 261.475359,667.98999 259.651523,659.270209 L259.617243,659.112666 C259.583777,658.964617 259.550181,658.817633 259.516452,658.671699 C258.554513,654.509691 257.494175,651.226381 256.247318,648.3877 C255.744672,647.243342 255.238466,646.225467 254.64882,645.137458 C254.432316,644.737967 253.702941,643.431689 253.566767,643.177206 C252.310847,640.830138 251.974117,637.139966 252.969008,621.570602 C253.56793,612.197874 255.015814,605.010547 259.988302,584.218015 C264.264815,566.335712 266.155194,556.830901 267.170936,545.71928 C268.414061,532.120236 267.58479,519.830087 264.191695,508.15784 C258.616754,488.980041 253.955684,477.319251 248.369665,467.719111 C246.944468,465.269764 245.504966,463.010193 243.60479,460.183765 C243.013549,459.304319 240.663879,455.852029 240.074962,454.976727 C238.706982,452.943511 237.576768,451.209278 236.44539,449.389235 C233.073905,443.965542 228.417471,439.093177 221.664685,433.375096 C218.673645,430.842362 207.499466,421.956332 207.851205,422.241153 C197.537039,413.889282 191.399311,407.677457 187.120756,400.546532 C181.577697,391.3081 180.194536,387.995231 179.254844,383.487226 C179.215251,383.296805 179.215251,383.296805 179.174371,383.098925 C178.005723,377.437977 176.92234,373.987552 173.835251,367.470364 C170.678265,360.805617 164.604315,356.86668 156.03607,354.34063 C150.438971,352.690519 144.563663,351.730264 133.52962,350.384748 C118.055845,348.497841 116.074658,348.234163 109.673538,347.04308 C97.0034029,344.685496 87.2618735,341.340136 79.6413621,336.329389 C75.9344357,333.891958 73.5325564,330.880312 70.0173529,324.581585 C69.4150552,323.502356 67.0375929,319.125532 66.4576759,318.078691 C64.8687997,315.210521 63.4628272,312.816147 61.9214366,310.409374 C57.9135283,304.151305 53.3702187,298.471571 47.6296028,292.855751 C46.0342055,291.295037 44.4962872,289.684691 43.014996,288.028776 C36.6751528,280.941553 31.6141108,273.327841 27.7284877,265.73154 C26.9981012,264.303652 26.3405969,262.936089 25.7536317,261.640006 Z"></path>
                </g>
            </g>
            <g id="Group-2-Copy" transform="translate(0.000000, 105.000000)" fill="#333333">
                <g id="Group">
                    <path d="M81.3381818,0.362608696 C153.598442,0.362608696 212.786494,58.7426087 212.786494,131.626957 C212.786494,204.148696 153.598442,262.891304 81.3381818,262.891304 L5.68434189e-14,262.891304 L5.68434189e-14,0.362608696 L81.3381818,0.362608696 Z M78.9174026,203.786087 C118.86026,203.786087 150.814545,171.513913 150.814545,131.626957 C150.814545,91.74 118.86026,59.4678261 78.9174026,59.4678261 L56.4041558,59.4678261 L56.4041558,203.786087 L78.9174026,203.786087 Z" id="Combined-Shape"></path>
                </g>
                <path d="M424.241558,193.633043 C410.806234,206.686957 393.013506,214.664348 373.405195,214.664348 C333.099221,214.664348 299.692468,180.57913 299.692468,138.516522 C299.692468,96.453913 333.099221,62.7313043 373.405195,62.7313043 C393.013506,62.7313043 410.806234,70.346087 424.241558,83.0373913 L466,38.073913 C442.034286,14.5043478 409.353766,2.84217094e-14 373.405195,2.84217094e-14 C299.329351,2.84217094e-14 239.051948,62.006087 239.051948,138.516522 C239.051948,215.026957 299.329351,277.033043 373.405195,277.033043 C409.353766,277.033043 442.034286,262.166087 466,238.95913 L424.241558,193.633043 Z" id="DC"></path>
            </g>
            <path d="M124.965565,598.755964 L124.965565,558.994194 L40.0087381,558.994194 L40.0087381,529.605059 L99.7748778,529.605059 L99.7748778,489.596321 L40.0087381,489.596321 L40.0087381,460.207186 L124.965565,460.207186 L124.965565,420.445415 L0,420.445415 L0,598.755964 L124.965565,598.755964 Z M231.408566,421.186318 L320.316873,599.002932 L278.085427,599.002932 L265.490083,574.30618 L196.833113,574.30618 L184.484737,599.002932 L142.253291,599.002932 L231.408566,421.186318 Z M231.408566,505.402242 L212.639034,542.200402 L249.93113,542.200402 L231.408566,505.402242 Z M388.644553,599.002932 L388.644553,460.207186 L434.580512,460.207186 L434.580512,420.445415 L303.440759,420.445415 L303.440759,460.207186 L348.882782,460.207186 L348.882782,599.002932 L388.644553,599.002932 Z M572.8,477.988847 C572.8,470.826789 572.306065,463.417764 570.330325,456.502673 C561.933429,432.546824 537.97758,416 511.305088,416 C482.903823,416 457.466168,433.534694 450.551078,462.182926 C446.846565,477.247945 452.032883,494.535671 461.170681,506.884047 C468.085772,516.021845 478.952343,524.418741 490.065881,527.135384 C499.697614,529.605059 509.329348,529.358091 518.714113,532.568669 C525.135269,534.791377 528.592814,540.47163 528.592814,546.39885 C528.592814,555.536648 521.183788,563.686577 511.305088,563.686577 C502.167289,563.686577 494.017361,556.030584 494.017361,546.151883 C494.017361,545.164013 494.264329,541.706467 495.005231,541.212532 L449.810175,541.212532 C449.563208,541.212532 449.563208,548.868525 449.810175,549.36246 C450.551078,563.686577 457.713136,577.26979 467.838804,586.654556 C479.940213,597.521127 495.499166,603.20138 510.811153,603.20138 C543.163898,603.20138 572.8,578.25766 572.8,545.41098 C572.8,536.767117 570.577292,527.629319 565.390974,518.738488 C562.674332,513.799138 559.216786,509.60069 555.018339,505.64921 C545.633573,497.005346 533.779132,491.819028 519.208048,490.584191 C508.835412,489.843288 494.264329,487.373613 494.264329,472.802529 C494.264329,463.664731 501.673354,456.502673 511.552055,456.502673 C520.195918,456.502673 527.357976,463.170796 528.098879,471.567692 L528.098879,471.567692 C528.345847,473.7904 528.098879,475.76614 527.604944,477.988847 L572.8,477.988847 Z" id="EATS-Copy" fill="#333333"></path>
        </g>
    </g>
</svg>